PathFileType	4	(X/Y/Z)	Patient4_TMGait_0pt5_02_left_01.trc.trc
DataRate	CameraRate	NumFrames	NumMarkers	Units	OrigDataRate	OrigDataStartFrame	OrigNumFrames
74.866310160428	74.866310160428	4	33	mm	74.866310160428	106	       141
Frame#	Time	Sacral			L.Shoulder			Chest			R.Shoulder			Neck			R.ASIS			L.ASIS			R.Thigh.Superior			R.Thigh.Lateral			R.Thigh.Inferior			R.Patella			L.Thigh.Superior			L.Thigh.Lateral			L.Thigh.Inferior			L.Patella			L.Shank.Superior			L.Shank.Lateral			L.Shank.Inferior			R.Shank.Superior			R.Shank.Lateral			R.Shank.Inferior			R.Heel			R.Midfoot.Superior			R.Midfoot.Lateral			R.Toe			L.Heel			L.Midfoot.Lateral			L.Midfoot.Superior			L.Toe			L.Elbow			L.Wrist			R.Elbow			R.Wrist			
		X1	Y1	Z1	X2	Y2	Z2	X3	Y3	Z3	X4	Y4	Z4	X5	Y5	Z5	X6	Y6	Z6	X7	Y7	Z7	X8	Y8	Z8	X9	Y9	Z9	X10	Y10	Z10	X11	Y11	Z11	X12	Y12	Z12	X13	Y13	Z13	X14	Y14	Z14	X15	Y15	Z15	X16	Y16	Z16	X17	Y17	Z17	X18	Y18	Z18	X19	Y19	Z19	X20	Y20	Z20	X21	Y21	Z21	X22	Y22	Z22	X23	Y23	Z23	X24	Y24	Z24	X25	Y25	Z25	X26	Y26	Z26	X27	Y27	Z27	X28	Y28	Z28	X29	Y29	Z29	X30	Y30	Z30	X31	Y31	Z31	X32	Y32	Z32	X33	Y33	Z33	

106	1.942500000000	550.047656567733	1010.538245856225	533.792874878889	720.891053790768	1438.581249237062	349.930890318638	836.948746470265	1360.328756441880	498.250830423750	774.683752754953	1433.840659483782	682.135459289152	741.042228165482	1495.544162533744	501.088319142964	786.009489485458	937.856093316593	628.393719895967	747.896618819273	967.106275613393	357.659099430297	820.810452203164	737.024327078169	592.474881593478	742.258668172614	629.961690899196	654.268164638761	812.002971080635	577.492987622090	567.114366936568	810.440239159431	487.947641095376	570.279416593949	832.225394800043	784.543762896379	383.922580201766	783.271315867466	656.339815378195	311.885967863104	885.628439577373	594.088024541010	371.761155958318	903.979977787598	512.198970520561	366.540289057659	858.632421259154	438.439124353096	358.153916196123	741.376564478231	351.875410199604	307.926595636669	774.823207285879	226.014130434032	362.837411191107	778.912699098577	400.145970100057	579.277507000250	707.170603440751	298.364603465163	643.046813554369	740.432812598904	203.673000497906	576.963870642770	598.421252349180	42.206188729755	550.357043649992	770.373650753465	96.704378066672	581.445835527689	683.314735349123	36.194527064779	623.703349552236	891.046304232112	45.208347243717	607.970798687266	620.367708062920	95.554753742360	399.108358908994	690.394998171961	77.542641155745	318.405077182334	783.956942126104	123.819286670904	340.560865561581	897.377393812935	51.083745225129	311.208629070806	642.763692507366	1089.346395860954	239.245705978807	759.639115775482	855.357271069531	210.365365010322	828.825978503730	1089.287791469239	794.340395146843	1029.841471069188	938.239619685150	729.092397189647	
107	1.955857142857	548.686204309762	1011.208988264720	535.712447160748	718.706921596079	1438.570623747078	350.272141959125	836.212064892813	1360.181787895351	497.308659105462	776.408529043191	1434.191962913201	681.762076186683	740.607706962286	1495.633425500037	501.081578489927	785.248625717086	937.676737602641	628.185752748250	745.167454805123	967.619304629581	357.748966376772	817.913613612430	736.337937242369	591.890784374600	739.115809062166	629.790077273131	654.557136801792	807.652095794798	576.806621515610	566.864521899850	805.351173789417	487.378679149353	570.130710235812	829.589476779930	785.483056896644	384.170041874579	780.931904560419	657.203724577602	311.926794853424	882.774518171646	595.187401640528	372.779687422742	902.857326762883	515.519555511182	367.410737191173	861.741497762586	441.189925451855	358.218745359065	751.073760345875	347.252902099462	306.742759880246	792.681671929152	223.451344304976	361.613438612221	773.619825720032	399.730829472794	579.229931900286	701.681917705380	298.175172034613	643.158575182293	734.270447230488	203.426741264564	576.892996750310	591.684647122847	42.225680212605	550.382184159333	763.640403229064	96.653985800297	581.422037294882	676.584149678394	36.188108117927	623.727144083921	884.333338771569	45.050550183746	607.959954370835	647.421031944622	82.254520458618	396.736516067572	719.018287523375	69.577010192345	316.282811221664	809.048202675635	122.079103139559	339.045588239603	927.420885686785	57.620863359020	309.990169250724	636.810813772624	1089.854701173137	240.989559558466	743.390309093386	851.232560000992	210.307756384485	838.105151012369	1091.657496791591	793.712870068259	1046.353897539824	954.474227473725	722.465472281028	
108	1.969214285714	547.395550216855	1011.817027951242	537.448090683884	716.639684228908	1438.498654851357	350.486398035301	835.511844391410	1359.971105035493	496.279576731061	778.024059949963	1434.423100796769	681.241689158632	740.182167154744	1495.643376554824	500.963294056246	784.559308868190	937.473865359311	627.920240063867	742.619398770122	967.951859450332	357.734579918628	815.140658995979	735.631392525265	591.330563750500	736.089157616364	629.575915057855	654.832609027593	803.448320831681	576.098158543769	566.650432866869	800.426225094760	486.771895623540	570.032134293074	826.719366109910	785.922035155455	384.457751083088	778.360462297012	657.735460365217	311.792412085965	879.469515388158	595.779826608270	373.871777998371	901.209457333439	518.445491929410	368.336894085462	864.322975764065	443.844382817530	358.361223395340	760.754671534138	342.959048167759	305.481737009653	810.146727005596	221.764073611659	360.608998519321	768.443347586547	399.279446752705	579.199230139962	696.283196483852	297.977028054358	643.296040370848	728.151790098577	203.153747308538	576.845659026728	584.950064143129	42.260607335786	550.416628242771	756.911846584578	96.597136507022	581.406089390114	669.854302203591	36.177059793827	623.753515993632	877.626874117766	44.862281725353	607.956709082103	674.490159541050	70.640540400007	394.407840937845	747.582399953246	63.073480582609	314.470788259359	833.715555198196	121.498795821762	337.969984351203	956.529927502686	65.305723022685	309.772539393652	631.107894293803	1090.374095003033	242.503753509157	727.543271509726	847.732930824148	210.382454135700	847.003194658226	1094.022351052908	792.721615888086	1061.451311680246	971.158977059539	715.586482744227	
109	1.982571428571	546.202061361470	1012.341336976089	538.993462009613	714.706361662692	1438.364606220119	350.565465380515	834.844808077470	1359.698406133338	495.178601381964	779.490385772192	1434.533399712190	680.583698128791	739.764979617773	1495.573513638976	500.731129845756	783.940428506218	937.247323813167	627.611481845496	740.266665718934	968.099486885912	357.623508822490	812.523426443458	734.908839845938	590.811801911258	733.197127066275	629.315940569721	655.086766577131	799.429112011616	575.367262811933	566.469911651339	795.706919273122	486.118318181133	569.974375813641	823.693863665322	785.910204221870	384.763867283893	775.679788937766	657.980797096556	311.470420065184	875.922649344920	595.947919043619	374.928671539444	899.201375170438	520.978182294502	369.243000404588	866.445206008961	446.397834485650	358.538877266360	770.266141930481	339.144973739270	304.199059348227	826.904177581378	221.012975323261	359.848483052979	763.414263065303	398.788926692306	579.176800315725	690.992832663921	297.774514696581	643.445077572460	722.089624787722	202.855332808212	576.815813714333	578.219156540871	42.311683908624	550.461875491299	750.189220190806	96.533810560777	581.398426333159	663.126568776164	36.162794986595	623.782328032905	870.928549751229	44.642257154678	607.963434515331	700.986368565265	60.994079710252	392.263204230566	775.470585773524	58.159256994962	313.067656165105	857.481451741975	122.071163055137	337.352961926434	984.146859133351	73.895560972175	310.518071096947	625.637383225878	1090.896958986541	243.802554517927	712.203862356063	844.827464615905	210.590342587642	855.521895607958	1096.344083044223	791.346143531336	1075.095209779150	988.099830972382	708.501212587030	
